<?xml version="1.0" encoding="UTF-8" standalone="no"?><!-- Generator: Gravit.io --><svg xmlns="http://www.w3.org/2000/svg" xmlns:xlink="http://www.w3.org/1999/xlink" style="isolation:isolate" viewBox="0 0 518.209 117" width="518.209pt" height="117pt"><defs><clipPath id="_clipPath_je3gYhk1JuulqnIJd4s9pYHK6zljavPd"><rect width="518.209" height="117"/></clipPath></defs><g clip-path="url(#_clipPath_je3gYhk1JuulqnIJd4s9pYHK6zljavPd)"><g><path d=" M 41.289 117.207 L 41.289 117.207 Q 29.035 117.207 17.981 112.945 L 17.981 112.945 L 17.981 112.945 Q 6.926 108.683 0 100.425 L 0 100.425 L 10.655 86.04 L 10.655 86.04 Q 17.315 92.434 24.64 95.897 L 24.64 95.897 L 24.64 95.897 Q 31.966 99.359 39.158 99.359 L 39.158 99.359 L 39.158 99.359 Q 47.948 99.359 53.542 95.897 L 53.542 95.897 L 53.542 95.897 Q 59.136 92.434 59.136 85.241 L 59.136 85.241 L 59.136 85.241 Q 59.136 79.647 55.673 76.184 L 55.673 76.184 L 55.673 76.184 Q 52.21 72.722 47.815 71.123 L 47.815 71.123 L 47.815 71.123 Q 43.42 69.525 33.031 66.328 L 33.031 66.328 L 33.031 66.328 Q 4.795 57.272 4.795 34.097 L 4.795 34.097 L 4.795 34.097 Q 4.795 20.245 15.05 10.389 L 15.05 10.389 L 15.05 10.389 Q 25.306 0.533 43.686 0.533 L 43.686 0.533 L 43.686 0.533 Q 55.407 0.533 64.464 3.463 L 64.464 3.463 L 64.464 3.463 Q 73.521 6.393 81.246 12.786 L 81.246 12.786 L 71.39 27.97 L 71.39 27.97 Q 67.128 23.441 60.601 20.778 L 60.601 20.778 L 60.601 20.778 Q 54.075 18.114 48.215 17.847 L 48.215 17.847 L 48.215 17.847 Q 40.756 17.847 35.428 21.444 L 35.428 21.444 L 35.428 21.444 Q 30.101 25.04 30.101 31.166 L 30.101 31.166 L 30.101 31.166 Q 30.101 36.228 33.564 39.557 L 33.564 39.557 L 33.564 39.557 Q 37.027 42.887 40.756 44.352 L 40.756 44.352 L 40.756 44.352 Q 44.485 45.817 55.407 49.28 L 55.407 49.28 L 55.407 49.28 Q 68.992 53.809 76.584 61.001 L 76.584 61.001 L 76.584 61.001 Q 84.176 68.193 84.176 80.447 L 84.176 80.447 L 84.176 80.447 Q 84.176 96.429 72.988 106.818 L 72.988 106.818 L 72.988 106.818 Q 61.8 117.207 41.289 117.207 L 41.289 117.207 Z  M 118.805 0 L 143.578 0 L 143.578 117 L 118.805 117 L 118.805 0 Z  M 186.732 32.359 L 211.505 32.359 L 211.505 117 L 186.732 117 L 186.732 32.359 Z  M 344.162 104.421 L 344.162 104.421 Q 336.703 110.547 326.448 114.01 L 326.448 114.01 L 326.448 114.01 Q 316.192 117.473 305.537 117.473 L 305.537 117.473 L 305.537 117.473 Q 287.69 117.473 273.971 110.281 L 273.971 110.281 L 273.971 110.281 Q 260.252 103.089 252.661 89.903 L 252.661 89.903 L 252.661 89.903 Q 245.069 76.717 245.069 59.403 L 245.069 59.403 L 245.069 59.403 Q 245.069 42.354 253.06 29.169 L 253.06 29.169 L 253.06 29.169 Q 261.052 15.983 274.371 8.791 L 274.371 8.791 L 274.371 8.791 Q 287.69 1.598 303.14 1.598 L 303.14 1.598 L 303.14 1.598 Q 328.446 1.598 344.961 15.45 L 344.961 15.45 L 332.441 31.699 L 332.441 31.699 Q 327.114 27.703 320.188 24.906 L 320.188 24.906 L 320.188 24.906 Q 313.262 22.109 305.271 22.109 L 305.271 22.109 L 305.271 22.109 Q 295.415 22.109 287.29 27.037 L 287.29 27.037 L 287.29 27.037 Q 279.165 31.966 274.504 40.49 L 274.504 40.49 L 274.504 40.49 Q 269.842 49.014 269.842 59.403 L 269.842 59.403 L 269.842 59.403 Q 269.842 69.791 274.77 78.315 L 274.77 78.315 L 274.77 78.315 Q 279.698 86.84 288.222 91.901 L 288.222 91.901 L 288.222 91.901 Q 296.746 96.962 307.668 96.962 L 307.668 96.962 L 307.668 96.962 Q 321.253 96.962 331.376 88.971 L 331.376 88.971 L 344.162 104.421 Z  M 427.805 96.163 L 427.805 96.163 Q 441.657 96.163 454.709 86.573 L 454.709 86.573 L 466.164 104.953 L 466.164 104.953 Q 457.373 110.814 447.117 114.143 L 447.117 114.143 L 447.117 114.143 Q 436.862 117.473 427.272 117.473 L 427.272 117.473 L 427.272 117.473 Q 408.892 117.473 395.172 109.881 L 395.172 109.881 L 395.172 109.881 Q 381.455 102.29 373.996 88.971 L 373.996 88.971 L 373.996 88.971 Q 366.538 75.652 366.538 58.87 L 366.538 58.87 L 366.538 58.87 Q 366.538 42.621 374.662 29.169 L 374.662 29.169 L 374.662 29.169 Q 382.787 15.716 396.905 7.858 L 396.905 7.858 L 396.905 7.858 Q 411.022 0 427.805 0 L 427.805 0 L 427.805 0 Q 449.382 0 463.899 12.653 L 463.899 12.653 L 463.899 12.653 Q 478.416 25.306 483.745 47.948 L 483.745 47.948 L 396.372 78.582 L 396.372 78.582 Q 401.167 86.84 409.29 91.501 L 409.29 91.501 L 409.29 91.501 Q 417.416 96.163 427.805 96.163 L 427.805 96.163 Z  M 425.939 19.712 L 425.939 19.712 Q 410.757 19.712 400.901 30.367 L 400.901 30.367 L 400.901 30.367 Q 391.043 41.022 391.043 57.538 L 391.043 57.538 L 391.043 57.538 Q 391.043 61.534 391.311 63.665 L 391.311 63.665 L 455.508 39.957 L 455.508 39.957 Q 451.513 30.9 444.187 25.306 L 444.187 25.306 L 444.187 25.306 Q 436.862 19.712 425.939 19.712 L 425.939 19.712 Z " fill-rule="evenodd" fill="rgb(240,87,78)"/><rect x="186.732" y="0" width="24.773" height="24.735" transform="matrix(1,0,0,1,0,0)" fill="rgb(240,87,78)"/><rect x="493.436" y="92.738" width="24.773" height="24.735" transform="matrix(1,0,0,1,0,0)" fill="rgb(240,87,78)"/></g></g></svg>